<?xml version="1.0" encoding="UTF-8"?> <svg xmlns="http://www.w3.org/2000/svg" xmlns:xlink="http://www.w3.org/1999/xlink" fill="none" height="347" viewBox="0 0 304 347" width="304"><clipPath id="a"><path d="m0 0h304v346.667h-304z"></path></clipPath><g clip-path="url(#a)"><g stroke="#00084d"><path d="m288.524 253.096.766-.446v-.892" stroke-dasharray="4 4" stroke-miterlimit="10" stroke-width="2"></path><path d="m289.29 248.226v-151.5511" stroke-dasharray="4 4" stroke-miterlimit="10" stroke-width="2"></path><path d="m289.29 94.9087v-.892l-.766-.446" stroke-dasharray="4 4" stroke-miterlimit="10" stroke-width="2"></path><path d="m285.475 91.8224-131.175-75.7843" stroke-dasharray="4 4" stroke-miterlimit="10" stroke-width="2"></path><path d="m152.767 15.164-.767-.446-.767.446" stroke-dasharray="4 4" stroke-miterlimit="10" stroke-width="2"></path><path d="m148.167 16.9302-131.1572 75.7664" stroke-dasharray="4 4" stroke-miterlimit="10" stroke-width="2"></path><path d="m15.4764 93.5707-.7667.446v.892" stroke-dasharray="4 4" stroke-miterlimit="10" stroke-width="2"></path><path d="m14.7097 98.4411v151.5509" stroke-dasharray="4 4" stroke-miterlimit="10" stroke-width="2"></path><path d="m14.7097 251.758v.892l.7667.446" stroke-dasharray="4 4" stroke-miterlimit="10" stroke-width="2"></path><path d="m18.5254 254.844 131.1746 75.784" stroke-dasharray="4 4" stroke-miterlimit="10" stroke-width="2"></path><path d="m151.233 331.503.767.446.767-.446" stroke-dasharray="4 4" stroke-miterlimit="10" stroke-width="2"></path><path d="m155.816 329.754 131.174-75.784" stroke-dasharray="4 4" stroke-miterlimit="10" stroke-width="2"></path><path d="m14.7098 107.771c7.6316 0 13.8182-6.19 13.8182-13.8256 0-7.6359-6.1866-13.826-13.8182-13.826-7.63159 0-13.818198 6.1901-13.818198 13.826 0 7.6356 6.186608 13.8256 13.818198 13.8256z" fill="#8bc7f5" stroke-linecap="round" stroke-linejoin="round" stroke-width="2"></path><path d="m14.7098 266.476c7.6316 0 13.8182-6.19 13.8182-13.826s-6.1866-13.826-13.8182-13.826c-7.63159 0-13.818198 6.19-13.818198 13.826s6.186608 13.826 13.818198 13.826z" fill="#8bc7f5" stroke-linecap="round" stroke-linejoin="round" stroke-width="2"></path><path d="m289.29 107.771c7.632 0 13.819-6.19 13.819-13.8256 0-7.6359-6.187-13.826-13.819-13.826-7.631 0-13.818 6.1901-13.818 13.826 0 7.6356 6.187 13.8256 13.818 13.8256z" fill="#8bc7f5" stroke-linecap="round" stroke-linejoin="round" stroke-width="2"></path><path d="m152 28.544c7.632 0 13.818-6.1901 13.818-13.826 0-7.63586-6.186-13.825971-13.818-13.825971s-13.818 6.190111-13.818 13.825971c0 7.6359 6.186 13.826 13.818 13.826z" fill="#8bc7f5" stroke-linecap="round" stroke-linejoin="round" stroke-width="2"></path><path d="m152 345.775c7.632 0 13.818-6.19 13.818-13.826s-6.186-13.826-13.818-13.826-13.818 6.19-13.818 13.826 6.186 13.826 13.818 13.826z" fill="#8bc7f5" stroke-linecap="round" stroke-linejoin="round" stroke-width="2"></path><path d="m289.29 266.476c7.632 0 13.819-6.19 13.819-13.826s-6.187-13.826-13.819-13.826c-7.631 0-13.818 6.19-13.818 13.826s6.187 13.826 13.818 13.826z" fill="#8bc7f5" stroke-linecap="round" stroke-linejoin="round" stroke-width="2"></path><path d="m48.9788 113.819 103.0212 59.514 103.021-59.514-103.021-59.5141z" stroke-linejoin="round" stroke-width="2"></path><path d="m48.9788 232.848 103.0212 59.514 103.021-59.514-103.021-59.515z" stroke-dasharray="4 4" stroke-linecap="round" stroke-linejoin="round" stroke-miterlimit="10" stroke-width="2"></path><path d="m48.9788 113.819 103.0212 59.514v119.029l-103.0212-59.514z" stroke-linejoin="round" stroke-width="2"></path><path d="m255.021 113.819-103.021 59.514v119.029l103.021-59.514z" stroke-linejoin="round" stroke-width="2"></path><path d="m152 54.3049v119.0281" stroke-miterlimit="10" stroke-width="2"></path><path d="m104.073 145.646 47.927 27.687 47.927-27.687-47.927-27.688z" fill="#8bc7f5" stroke-linecap="round" stroke-linejoin="round"></path><path d="m104.073 145.646 47.927 27.687v55.376l-47.927-27.688z" fill="#1c90ed" stroke-linejoin="round"></path></g><path d="m199.927 145.646-47.927 27.687v55.376l47.927-27.688z" fill="#00084d"></path><path d="m104.073 90.2704 47.927 27.6876 47.927-27.6876-47.927-27.6877z" fill="#8bc7f5" stroke="#00084d" stroke-linecap="round" stroke-linejoin="round" stroke-width="2"></path><path d="m104.073 90.2704 47.927 27.6876v55.375l-47.927-27.687z" fill="#1c90ed" stroke="#00084d" stroke-linejoin="round" stroke-width="2"></path><path d="m199.927 90.2704-47.927 27.6876v55.375l47.927-27.687z" fill="#00084d" stroke="#00084d" stroke-linejoin="round" stroke-width="2"></path><path d="m152 173.333 47.927 27.688 47.927-27.688-47.927-27.687z" fill="#8bc7f5" stroke="#00084d" stroke-linecap="round" stroke-linejoin="round" stroke-width="2"></path><path d="m152 173.333 47.927 27.688v55.375l-47.927-27.687z" fill="#1c90ed" stroke="#00084d" stroke-linejoin="round" stroke-width="2"></path><path d="m247.854 173.333-47.927 27.688v55.375l47.927-27.687z" fill="#00084d" stroke="#00084d" stroke-linejoin="round" stroke-width="2"></path><path d="m56.1287 173.333 47.9443 27.688 47.927-27.688-47.927-27.687z" fill="#8bc7f5" stroke="#00084d" stroke-linecap="round" stroke-linejoin="round" stroke-width="2"></path><path d="m56.1287 173.333 47.9443 27.688v55.375l-47.9443-27.687z" fill="#1c90ed" stroke="#00084d" stroke-linejoin="round" stroke-width="2"></path><path d="m152 173.333-47.927 27.688v55.375l47.927-27.687z" fill="#00084d" stroke="#00084d" stroke-linejoin="round" stroke-width="2"></path></g></svg> 