<?xml version="1.0" encoding="UTF-8"?> <svg xmlns="http://www.w3.org/2000/svg" width="24" height="24" viewBox="0 0 24 24" fill="none"><path opacity="0.4" d="M6 6L10.5 10.5M6 6H3L2 3L3 2L6 3V6ZM12.0001 14.9999L17.5 20.4999C18.3284 21.3283 19.6716 21.3283 20.5 20.4999C21.3284 19.6715 21.3284 18.3283 20.5 17.4999L15.9753 12.9753C15.655 12.945 15.3427 12.8872 15.0408 12.8043C14.6517 12.6975 14.2249 12.7751 13.9397 13.0603L12.0001 14.9999Z" stroke="#1D63ED" stroke-width="2" stroke-linecap="round" stroke-linejoin="round"></path><path d="M19.2592 2.74101L16.6316 5.36863C16.2356 5.76465 16.0376 5.96265 15.9634 6.19098C15.8981 6.39183 15.8981 6.60817 15.9634 6.80902C16.0376 7.03735 16.2356 7.23535 16.6316 7.63137L16.8689 7.86863C17.2649 8.26465 17.4629 8.46265 17.6912 8.53684C17.8921 8.6021 18.1084 8.6021 18.3092 8.53684C18.5376 8.46265 18.7356 8.26465 19.1316 7.86863L21.5895 5.41072C21.8542 6.05488 22.0002 6.76039 22.0002 7.5C22.0002 10.5376 19.5378 13 16.5002 13C16.134 13 15.7762 12.9642 15.43 12.8959C14.9438 12.8001 14.7008 12.7521 14.5534 12.7668C14.3968 12.7824 14.3195 12.8059 14.1807 12.8802C14.0502 12.9501 13.9192 13.081 13.6573 13.343L6.50023 20.5C5.6718 21.3284 4.32865 21.3284 3.50023 20.5C2.6718 19.6716 2.6718 18.3284 3.50023 17.5L10.6573 10.343C10.9192 10.081 11.0502 9.95005 11.12 9.81949C11.1943 9.68068 11.2178 9.60347 11.2334 9.44681C11.2481 9.29945 11.2002 9.05638 11.1043 8.57024C11.036 8.22406 11.0002 7.86621 11.0002 7.5C11.0002 4.46243 13.4627 2 16.5002 2C17.5057 2 18.4482 2.26982 19.2592 2.74101Z" stroke="#1D63ED" stroke-width="2" stroke-linecap="round" stroke-linejoin="round"></path></svg> 