<?xml version="1.0" encoding="UTF-8"?> <svg xmlns="http://www.w3.org/2000/svg" width="40" height="41" viewBox="0 0 40 41" fill="none"><path d="M34.17 12.8844L20.0034 20.7548M20.0034 20.7548L5.8367 12.8844M20.0034 20.7548L20.0034 36.5882M35.0034 27.5191V13.9906C35.0034 13.4195 35.0034 13.134 34.9193 12.8793C34.8448 12.654 34.7232 12.4472 34.5624 12.2728C34.3806 12.0755 34.131 11.9369 33.6318 11.6595L21.2985 4.80766C20.8258 4.54507 20.5895 4.41377 20.3392 4.36229C20.1177 4.31674 19.8892 4.31674 19.6677 4.36229C19.4174 4.41377 19.181 4.54507 18.7084 4.80767L6.37504 11.6595C5.87583 11.9369 5.62623 12.0755 5.44447 12.2728C5.28368 12.4472 5.162 12.654 5.08756 12.8793C5.00342 13.134 5.00342 13.4195 5.00342 13.9906V27.5191C5.00342 28.0902 5.00342 28.3757 5.08756 28.6304C5.162 28.8557 5.28368 29.0625 5.44447 29.237C5.62623 29.4342 5.87583 29.5729 6.37504 29.8502L18.7084 36.7021C19.181 36.9647 19.4174 37.096 19.6677 37.1474C19.8892 37.193 20.1177 37.193 20.3392 37.1474C20.5895 37.096 20.8258 36.9647 21.2985 36.7021L33.6318 29.8502C34.131 29.5729 34.3806 29.4342 34.5624 29.237C34.7232 29.0625 34.8448 28.8557 34.9193 28.6304C35.0034 28.3757 35.0034 28.0902 35.0034 27.5191Z" stroke="#1D63ED" stroke-width="2.5" stroke-linecap="round" stroke-linejoin="round"></path><path d="M24.9975 24.0884V29.0896" stroke="#1D63ED" stroke-opacity="0.37" stroke-width="2.5" stroke-linecap="round" stroke-linejoin="round"></path><path d="M29.9971 20.7554V25.7565" stroke="#1D63ED" stroke-opacity="0.37" stroke-width="2.5" stroke-linecap="round" stroke-linejoin="round"></path></svg> 