<?xml version="1.0" encoding="UTF-8"?> <svg xmlns="http://www.w3.org/2000/svg" xmlns:xlink="http://www.w3.org/1999/xlink" fill="none" height="43" viewBox="0 0 71 43" width="71"><clipPath id="a"><path d="m0 .492188h70.1538v42h-70.1538z"></path></clipPath><g clip-path="url(#a)"><path d="m19.9385 15.8153c0 .8539.0923 1.5462.2539 2.0539.1846.5077.4154 1.0615.7384 1.6615.1154.1846.1616.3692.1616.5308 0 .2307-.1385.4615-.4385.6923l-1.4538.9692c-.2077.1385-.4154.2077-.6.2077-.2308 0-.4616-.1154-.6923-.3231-.3231-.3461-.6-.7154-.8308-1.0846-.2308-.3923-.4616-.8308-.7154-1.3615-1.8 2.1231-4.0615 3.1846-6.78462 3.1846-1.93846 0-3.48461-.5539-4.61538-1.6615-1.13077-1.1077-1.70769-2.5847-1.70769-4.4308 0-1.9616.6923-3.5539 2.1-4.7539 1.40769-1.2 3.27692-1.79996 5.65389-1.79996.7846 0 1.5923.06923 2.4461.18462.8539.11538 1.7308.30004 2.6539.50764v-1.68457c0-1.75384-.3693-2.97692-1.0847-3.69231-.7384-.71538-1.9846-1.06153-3.7615-1.06153-.8077 0-1.63846.0923-2.49231.3-.85385.20769-1.68461.46153-2.49231.78461-.36923.16154-.64615.25385-.80769.3-.16154.04616-.27692.06923-.36923.06923-.32308 0-.48462-.23077-.48462-.71538v-1.13077c0-.36923.04616-.64616.16154-.80769.11539-.16154.32308-.32308.64616-.48462.80769-.41538 1.77692-.76154 2.90769-1.03846 1.13077-.300001 2.33077-.438462 3.59997-.438462 2.7462 0 4.7539.623072 6.0462 1.869232 1.2692 1.24615 1.9154 3.13846 1.9154 5.67692v7.4769zm-9.3692 3.5077c.7615 0 1.5461-.1384 2.3769-.4154.8308-.2769 1.5692-.7846 2.1923-1.4769.3693-.4385.6462-.9231.7846-1.4769.1385-.5539.2308-1.2231.2308-2.0077v-.9692c-.6692-.1616-1.3846-.3-2.1231-.3923-.7384-.0924-1.4538-.1385-2.1692-.1385-1.5462 0-2.67692.3-3.43846.9231-.76154.623-1.13077 1.5-1.13077 2.6538 0 1.0846.27692 1.8923.85384 2.4462.55385.5769 1.36154.8538 2.42309.8538zm18.5308 2.4923c-.4154 0-.6923-.0692-.877-.2307-.1846-.1385-.3461-.4616-.4846-.9l-5.4231-17.83851c-.1384-.46153-.2076-.76153-.2076-.92307 0-.36923.1846-.57693.5538-.57693h2.2615c.4385 0 .7385.06923.9.23077.1847.13846.3231.46154.4616.9l3.8769 15.27694 3.6-15.27694c.1154-.46154.2538-.76154.4385-.9.1846-.13846.5077-.23077.923-.23077h1.8462c.4384 0 .7385.06923.9231.23077.1846.13846.3461.46154.4384.9l3.6462 15.46154 3.9923-15.46154c.1384-.46154.3-.76154.4615-.9.1846-.13846.4846-.23077.9-.23077h2.1462c.3692 0 .5769.18462.5769.57693 0 .11538-.0231.23077-.0461.36923-.0231.13846-.0693.32307-.1616.57692l-5.5615 17.83843c-.1385.4616-.3.7616-.4846.9-.1847.1385-.4847.2308-.877.2308h-1.9846c-.4384 0-.7384-.0692-.9231-.2308-.1846-.1615-.3461-.4615-.4384-.923l-3.5769-14.88466-3.5539 14.86156c-.1154.4615-.2538.7615-.4384.9231-.1847.1615-.5077.2307-.9231.2307zm29.6538.6231c-1.2 0-2.4-.1385-3.5538-.4154-1.1539-.2769-2.0539-.5769-2.6539-.9231-.3692-.2077-.6231-.4384-.7154-.6461s-.1384-.4385-.1384-.6462v-1.1769c0-.4846.1846-.7154.5307-.7154.1385 0 .277.0231.4154.0693.1385.0461.3462.1384.5769.2307.7847.3462 1.6385.6231 2.5385.8077.9231.1846 1.8231.2769 2.7462.2769 1.4538 0 2.5846-.2538 3.3692-.7615s1.2-1.2462 1.2-2.1923c0-.6462-.2077-1.1769-.6231-1.6154s-1.2-.8308-2.3308-1.2l-3.3461-1.0385c-1.6846-.5307-2.9308-1.3153-3.6923-2.3538-.7616-1.01538-1.1539-2.14615-1.1539-3.34615 0-.96923.2077-1.82308.6231-2.56154s.9692-1.38462 1.6615-1.89231c.6924-.53077 1.477-.92308 2.4001-1.2.923-.276922 1.8923-.392306 2.9076-.392306.5077 0 1.0385.023077 1.5462.092307.5308.069231 1.0154.161539 1.5.253849.4615.11538.9.23077 1.3154.36923s.7384.27692.9692.41538c.3231.18462.5539.36923.6923.57693.1385.18461.2077.43846.2077.76153v1.08462c0 .48462-.1846.73846-.5308.73846-.1846 0-.4846-.09231-.8769-.27692-1.3154-.6-2.7923-.9-4.4307-.9-1.3154 0-2.3539.20769-3.0693.64615s-1.0846 1.10769-1.0846 2.05385c0 .64615.2308 1.2.6923 1.63846.4616.43846 1.3154.87692 2.5385 1.26923l3.2769 1.03843c1.6615.5308 2.8615 1.2693 3.5769 2.2154.7154.9462 1.0616 2.0308 1.0616 3.2308 0 .9923-.2077 1.8923-.6 2.6769-.4154.7846-.9693 1.4769-1.6847 2.0308-.7153.5769-1.5692.9923-2.5615 1.2923-1.0385.3231-2.1231.4846-3.3.4846z" fill="#fff"></path><g clip-rule="evenodd" fill="#f90" fill-rule="evenodd"><path d="m63.116 33.6538c-7.5923 5.6077-18.6231 8.5846-28.1077 8.5846-13.2923 0-25.26926-4.9153-34.315413-13.0846-.715385-.6461-.069231-1.523.784613-1.0154 9.7846 5.677 21.8538 9.1154 34.3385 9.1154 8.423 0 17.6769-1.7538 26.1923-5.3538 1.2692-.5769 2.3538.8307 1.1077 1.7538z"></path><path d="m66.2769 30.0538c-.9692-1.2462-6.4154-.6-8.8846-.3-.7385.0923-.8539-.5539-.1846-1.0385 4.3384-3.0461 11.4692-2.1692 12.3-1.1538.8307 1.0384-.2308 8.1692-4.2923 11.5846-.6231.5308-1.2231.2538-.9462-.4385.9231-2.2846 2.9769-7.4307 2.0077-8.6538z"></path></g></g></svg> 