<?xml version="1.0" encoding="UTF-8"?> <svg xmlns="http://www.w3.org/2000/svg" xmlns:xlink="http://www.w3.org/1999/xlink" fill="none" height="54" viewBox="0 0 53 54" width="53"><linearGradient id="a" gradientUnits="userSpaceOnUse" x1="23.6453" x2="8.7164" y1="7.49704" y2="51.6008"><stop offset="0" stop-color="#114a8b"></stop><stop offset="1" stop-color="#0669bc"></stop></linearGradient><linearGradient id="b" gradientUnits="userSpaceOnUse" x1="28.3078" x2="24.8545" y1="28.0508" y2="29.2184"><stop offset="0" stop-opacity=".3"></stop><stop offset=".071" stop-opacity=".2"></stop><stop offset=".321" stop-opacity=".1"></stop><stop offset=".623" stop-opacity=".05"></stop><stop offset="1" stop-opacity="0"></stop></linearGradient><linearGradient id="c" gradientUnits="userSpaceOnUse" x1="26.4096" x2="42.797" y1="6.21087" y2="49.8702"><stop offset="0" stop-color="#3ccbf4"></stop><stop offset="1" stop-color="#2892df"></stop></linearGradient><path d="m18.406 4.10504h14.3752l-14.9229 44.21466c-.1533.4544-.4453.8492-.8348 1.1289-.3896.2796-.857.4301-1.3365.4302h-11.18741c-.36332.0001-.72143-.0864-1.04471-.2522-.32327-.1658-.60241-.4063-.81433-.7014-.21193-.2951-.35053-.6364-.40436-.9957s-.02132-.7263.09482-1.0706l13.90309-41.19477c.1533-.45453.4454-.84951.835-1.1293.3896-.2798.8572-.42976 1.3369-.42979z" fill="url(#a)"></path><path d="m39.2948 33.7612h-22.7955c-.2119-.0002-.419.0634-.5943.1825-.1752.1192-.3106.2883-.3883.4855-.0778.1971-.0943.4131-.0476.6198.0468.2068.1547.3946.3097.5391l14.6479 13.6718c.4265.3978.988.619 1.5713.6189h12.9077z" fill="#0078d4"></path><path d="m18.405 4.10524c-.4849-.00186-.9577.15138-1.3493.43734-.3917.28596-.6816.68965-.8275 1.15211l-13.88105 41.12691c-.12395.3455-.16287.7158-.11345 1.0795.04941.3637.18571.7102.39735 1.0101s.4924.5445.81853.7129c.32613.1685.68804.2559 1.05511.2549h11.47611c.4275-.0763.827-.2648 1.1577-.5461.3308-.2813.5809-.6453.725-1.0549l2.7681-8.1582 9.8878 9.2226c.4144.3427.9341.5322 1.4719.5366h12.8596l-5.64-16.1175-16.4416.0039 10.0628-29.66016z" fill="url(#b)"></path><path d="m36.7666 5.6621c-.1531-.45379-.4447-.84812-.8337-1.12742-.3891-.27931-.8559-.42951-1.3348-.42946h-16.021c.479.00003.9458.15027 1.3348.42956s.6807.67357.8338 1.12732l13.9037 41.1965c.1162.3443.1488.7113.095 1.0707s-.1923.7009-.4043.9961c-.2119.2952-.491.5357-.8144.7017-.3233.1659-.6815.2524-1.0449.2525h16.0215c.3633-.0002.7215-.0868 1.0447-.2527.3233-.166.6024-.4065.8142-.7017.2119-.2952.3504-.6366.4042-.996.0537-.3594.0211-.7264-.0951-1.0706z" fill="url(#c)"></path></svg> 