<?xml version="1.0" encoding="UTF-8"?> <svg xmlns="http://www.w3.org/2000/svg" xmlns:xlink="http://www.w3.org/1999/xlink" fill="none" height="61" viewBox="0 0 62 61" width="62"><clipPath id="a"><path d="m0 .755371h62v59.9605h-62z"></path></clipPath><g clip-path="url(#a)"><path d="m27.5392 40.1066-3.2627.9143c.2986.8302.5155 2.3193.5155 4.2956v9.7881h3.6454v-10.3605c.6787-.8302 1.4131-1.2314 2.2297-1.2314.4068 0 .7059.0859 1.0614.2862l1.0045-3.377c-.5706-.2578-.816-.3153-1.3606-.3153-.4067 0-.8957.0859-1.1967.2293-.6788.3437-1.5486 1.1146-2.066 1.8595-.0531-.8308-.2454-1.4873-.5705-2.0888zm-12.6558-4.8378h-.3969v19.8358h3.8086v-8.7879h4.8112v-3.2627h-4.8112v-4.5516h6.008l.233-1.7327c-3.6126-.2763-6.8932-.8568-9.6527-1.5015zm-8.92078 22.468 1.76735 2.0622c1.71232-.6874 3.85983-2.2341 4.40633-4.666.1904-.7999.2701-1.3173.2701-3.8926v-15.9265h-3.85983v16.3561c0 2.1457-.0816 2.9475-.38079 3.6633-.3536.8018-1.22521 1.7754-2.20316 2.4035zm34.67988-10.0459c0 3.463-.6794 4.9503-2.2563 4.9503-.7078 0-1.5238-.3987-1.849-1.2005-.2986-.7443-.4624-2.0047-.4624-3.6923 0-1.4607.1348-2.4894.3802-3.2627.2986-.9161 1.0064-1.4892 1.8755-1.4892.6528 0 1.2234.2862 1.577.7734.489.6589.7344 1.9472.7344 3.9216zm2.2297 5.6964c1.1968-1.4317 1.7408-3.1502 1.7408-5.668 0-2.3768-.4908-3.9785-1.606-5.3533-1.1943-1.4873-2.7453-2.2032-4.7315-2.2032-3.7517 0-6.2534 3.0624-6.2534 7.6709 0 4.6084 2.4733 7.5849 6.2534 7.5849 2.15 0 3.5366-.7733 4.5967-2.0313zm10.4421-8.2167c0 1.3458-.7894 2.0907-2.2297 2.0907-1.2784 0-2.15-.6015-2.15-2.0907 0-1.3723.7894-2.1747 2.1766-2.1747 1.3871 0 2.2031.8018 2.2031 2.1747zm6.4438-3.1193-1.5219-2.4318c-.8426.8017-1.878 1.2598-2.8819 1.2598-.4624 0-.7078-.0593-1.7142-.3146-1.0064-.2863-1.7123-.3722-2.5017-.3722-3.5632 0-5.8726 1.9454-5.8726 4.9522 0 2.1747.9779 3.5204 2.9907 4.0644-.816.2003-1.7142.6281-2.121 1.1146-.2986.3437-.4358.8017-.4358 1.3457 0 .4581.1082.8593.272 1.203.1904.3152.4624.573.7894.714.6528.2596 1.7142.4314 3.3443.458.8426 0 1.3606.0285 1.5504.0285 1.0063.0575 1.5219.2293 1.9021.4314.3808.2269.6528.7425.6528 1.3155 0 .5724-.3518 1.1455-.8692 1.4892-.489.3418-1.2784.4846-2.3113.4846-1.6876 0-2.6099-.628-2.6099-1.8019 0-.5156.055-.63.1613-.9452h-3.3709c-.1347.2862-.327.6874-.327 1.4891 0 1.0021.3827 1.8595 1.1436 2.6038 1.25 1.2314 3.2912 1.5751 5.2755 1.5751 2.1747 0 4.2691-.5156 5.4924-1.8898.761-.8592 1.1146-1.8019 1.1146-3.0333 0-1.3173-.3808-2.3194-1.1968-3.1193-.9779-.9452-2.0925-1.2889-4.2141-1.3173l-1.9595-.0285c-.3802 0-.5972-.1434-.5972-.3437 0-.4011.5174-.7442 1.4422-1.2004.272.0284.3802.0284.544.0284 2.9641 0 5.1382-1.8329 5.1382-4.3531 0-.9718-.272-1.7161-.816-2.4035.4624.0575.5996.0859.9514.0859 1.0063 0 1.7673-.3152 2.5573-1.0879zm-45.8359-24.0102c-4.5578 1.1145-7.6542 3.2954-7.6542 5.8052 0 1.5528 1.18812 2.9783 3.17058 4.1034-.59529-.9532-.92045-1.9553-.92045-2.9907 0-2.6099 2.02077-5.0096 5.40467-6.9179zm48.078 9.8041c0-1.6449-1.0144-3.1706-2.7391-4.4224.1551.5014.2435 1.0145.2435 1.5362 0 4.7129-6.5822 8.7446-15.9122 10.4161 1.0533.1187 2.15.1842 3.275.1842 8.3583 0 15.1328-3.453 15.1328-7.7135zm-5.3775-2.5629c0-1.7284-1.4811-3.3301-4.0032-4.6517.591.7158.9124 1.4786.9124 2.2705 0 4.177-8.9004 7.5645-19.8784 7.5645-10.9762 0-19.8766-3.3875-19.8766-7.5645 0-.5316.1453-1.049.4173-1.5485-1.7631 1.1659-2.7694 2.5061-2.7694 3.9291 0 4.5225 10.1169 8.1901 22.599 8.1901 12.482 0 22.5989-3.6676 22.5989-8.1901zm-9.8715-.2028c-4.6047 2.9765-18.7904 4.0991-24.9004.2825-4.7883-2.9925-3.1459-7.7363-16.84263-18.18895-1.79021-1.36615.33134-2.81637 1.67338-1.88788 1.33957.92848.11251 1.17637 2.81885 3.88456 5.4634 5.46767 5.4102.55203 6.2738 2.41147 1.8143 3.9093 5.8176 7.8464 5.8176 7.8464 4.0113 2.6099 7.2121 3.1786 13.1262-.8221 3.7516-2.5389 2.2173 4.036 11.4163-.7017 3.3548-1.7284 3.2157-.5829 6.6255-5.3348 1.4156-1.9738 4.122 1.5158 1.0534 2.0004-1.2271.1941-3.2992 1.5362-4.1894 3.6577-1.2561 3.136-.7121 5.4572-2.872 6.8524zm-25.5668-8.0386c-1.1374-.5014-2.328-2.4381-2.7923-3.2157 1.2722-1.2456.7567-3.3301.039-4.47558-.7177-1.14361-1.5893-.81845-2.5444-1.86996-.9551-1.0515.3598-3.79246 1.5856-1.68512 4.5862 7.89156 7.5973 4.60846 11.3446 4.13802 3.5959-.45189 6.7745 1.50774 7.7506-4.03973.1595-.90809 1.041-1.12507 1.1313.37646.0921 1.49906.6546 5.15241 2.6303 5.62531 1.9781.4704 3.547-.4642 4.0113-.9816.4624-.5174.7034-.4439.908.8425.2022 1.2889.7035 3.0661 3.4797 1.0862 5.6785-4.05214 4.0521-5.61919 6.259-6.66019 1.2579-.59344 3.2379 1.33586.3746 2.78361-4.0954 2.07028-4.5287 4.64118-7.1164 6.27378-4.3488 2.7472-3.0191.1107-10.0168-.8858-2.6939-.3845-3.5612 2.6204-5.6642 1.7531-4.852-2.0047-8.2371-1.6202-11.3793.9347zm15.1655-14.62774c.1595 1.18441.3579 1.15535.7832 1.266.4235.10818.9613-.5582.9798-1.20481.0186-.64845-.2763-1.05521-.9161-1.03295-.6379.02472-.8673.34555-.8469.97176zm21.0876 2.15617c.5094.497 1.8693.16134 2.1865-.19411.8141-.91241.8425-1.46258.4234-2.07395-.4216-.60952-1.3093-.49886-2.1889.13909-.8778.63609-.7122 1.84708-.4216 2.12959zm-.3827 6.02587c-.4376.5811-.45.9922-.139 1.313.3313.3419 1.0187.6386 1.5139.2436.4926-.3907.4926-.9613.0735-1.4645-.4216-.5032-.994-.5032-1.4484-.0921zm-43.2241-7.12436c.667.20462.9594.82464 1.5219.11684.2782-.34989.3048-.81166-.0631-1.33339-.233-.32516-1.3154-.55017-1.7753-.08593-.46.46425-.0408 1.19245.3171 1.3031zm-13.371628-.39872c1.194918.73191 1.978138 1.84091 2.878188.85122.30291-.32948.68122-.95321.02844-2.14752-.47661-.873467-2.04737-1.231387-2.601871-.895721-.554497.333191-1.231391 1.623931-.304757 2.192641zm11.039828 5.66613c.3802.39501 1.0268.36225 1.4138.1496.3845-.21698.3047-.81413-.0655-1.33586-.2312-.32516-.9205-.47661-1.381-.01236-.4599.46424-.2331.9223.0327 1.19862z" fill="#40be46"></path></g></svg> 